#!OML:ASF X:\für Bonn\!DataBase\2005_08_10_Bjorn_Final\c3d\bjorn.ASF
:FULLY-SPECIFIED
:DEGREES
160
root -20.2974 19.3149 -0.731614 1243.18 258.122 -160.634
lowerback -7.47563 3.89482 -2.4957
upperback 6.38686 5.9608 -5.69266
thorax 11.496 2.87587 -3.75957
lowerneck -3.18588 -9.05424 5.6192
upperneck 11.8766 -13.6703 6.71801
head 4.66954 -6.26312 0.615735
rclavicle -5.56597e-014 3.49861e-014
rhumerus 37.9458 -17.3452 -43.7402
rradius 71.9817
rwrist -34.8812
rhand -21.556 8.02721
rfingers 7.12502
rthumb 4.83753 -21.8976
lclavicle -5.56597e-014 3.49861e-014
lhumerus -25.0757 2.18111 80.3695
lradius 26.3957
lwrist -24.1963
lhand -20.1484 -7.53113
lfingers 7.12502
lthumb 6.19655 22.3582
rfemur -18.284 1.41107 9.95992
rtibia 29.2884
rfoot -4.72319 20.3183
rtoes 3.13365
lfemur -1.33386 -16.8307 -15.9746
ltibia 25.164
lfoot -7.95584 -20.1026
ltoes 4.74453
161
root -20.2482 19.3093 -0.693607 1242.07 258.836 -159.563
lowerback -7.31365 3.91767 -2.57717
upperback 6.36247 5.98742 -5.72671
thorax 11.367 2.88335 -3.75604
lowerneck -3.00359 -9.0005 5.60379
upperneck 11.8673 -13.5837 6.72249
head 4.63076 -6.22822 0.634057
rclavicle -5.20816e-014 5.725e-014
rhumerus 37.364 -17.916 -44.2304
rradius 73.3507
rwrist -34.5677
rhand -21.3329 7.14956
rfingers 7.12502
rthumb 5.05291 -22.7702
lclavicle -5.20816e-014 5.725e-014
lhumerus -25.079 1.54807 80.5338
lradius 27.1089
lwrist -23.1177
lhand -20.7099 -7.64387
lfingers 7.12502
lthumb 5.65442 22.2607
rfemur -18.5276 1.73503 9.86054
rtibia 29.244
rfoot -4.3556 20.6764
rtoes 3.03469
lfemur -1.1715 -17.3549 -15.9665
ltibia 24.8689
lfoot -7.34299 -20.8329
ltoes 5.80041
162
root -20.1961 19.305 -0.654662 1240.79 259.544 -158.333
lowerback -7.13764 3.9148 -2.69169
upperback 6.34471 5.98008 -5.73859
thorax 11.2286 2.87084 -3.71661
lowerneck -2.76017 -8.92964 5.54287
upperneck 11.7694 -13.4604 6.76662
head 4.55365 -6.18122 0.679427
rclavicle -3.49861e-014 1.00187e-013
rhumerus 36.7435 -18.359 -44.5641
rradius 74.7428
rwrist -34.203
rhand -20.9992 6.08497
rfingers 7.12502
rthumb 5.37515 -23.8269
lclavicle -3.49861e-014 1.00187e-013
lhumerus -25.1047 1.04067 80.7222
lradius 27.8247
lwrist -22.105
lhand -21.2619 -7.59359
lfingers 7.12502
lthumb 5.12145 22.3245
rfemur -18.7715 2.08632 9.75707
rtibia 29.1846
rfoot -3.92919 20.9713
rtoes 3.15381
lfemur -1.01526 -17.8816 -15.9632
ltibia 24.5622
lfoot -6.83054 -21.5859
ltoes 6.47603
163
root -20.1424 19.3009 -0.614736 1239.29 260.256 -156.899
lowerback -6.93352 3.92658 -2.76835
upperback 6.32816 5.98806 -5.78694
thorax 11.0846 2.87054 -3.73725
lowerneck -2.57099 -8.8764 5.54716
upperneck 11.7255 -13.3754 6.79651
head 4.5018 -6.14724 0.703644
rclavicle 6.63941e-014 -4.29375e-014
rhumerus 35.9788 -18.7311 -44.8286
rradius 76.1883
rwrist -34.0242
rhand -20.6523 5.21854
rfingers 7.12502
rthumb 5.71004 -24.6845
lclavicle 6.63941e-014 -4.29375e-014
lhumerus -25.1037 0.58023 80.8262
lradius 28.4797
lwrist -21.2685
lhand -21.7975 -7.53522
lfingers 7.12502
lthumb 4.60429 22.3947
rfemur -18.9989 2.42983 9.65519
rtibia 29.1097
rfoot -3.53116 21.291
rtoes 3.00557
lfemur -0.860808 -18.4196 -15.981
ltibia 24.2459
lfoot -6.37274 -22.3094
ltoes 6.87933
164
root -20.086 19.2967 -0.573072 1237.47 261.001 -155.134
lowerback -6.72951 3.9467 -2.85274
upperback 6.31559 6.00698 -5.82544
thorax 10.944 2.87439 -3.74108
lowerneck -2.3155 -8.83303 5.51809
upperneck 11.5948 -13.2892 6.85671
head 4.41023 -6.11865 0.748377
rclavicle -1.90833e-014 6.36111e-014
rhumerus 35.0623 -18.911 -44.8641
rradius 77.6488
rwrist -34.3902
rhand -20.4405 4.73924
rfingers 7.12502
rthumb 5.91451 -25.1582
lclavicle -1.90833e-014 6.36111e-014
lhumerus -25.0671 0.142943 80.9414
lradius 29.0482
lwrist -20.4846
lhand -22.3225 -7.40918
lfingers 7.12502
lthumb 4.09738 22.5312
rfemur -19.2515 2.77828 9.55094
rtibia 29.0311
rfoot -3.02612 21.6398
rtoes 3.21255
lfemur -0.699129 -18.8994 -16.0058
ltibia 23.9004
lfoot -5.85947 -23.0583
ltoes 7.3913
165
root -20.0266 19.2913 -0.531309 1235.45 261.734 -153.204
lowerback -6.49378 3.95936 -2.92425
upperback 6.31845 6.01169 -5.85785
thorax 10.8016 2.87219 -3.7497
lowerneck -2.0596 -8.79434 5.53094
upperneck 11.4424 -13.205 6.88756
head 4.30522 -6.09157 0.777126
rclavicle 3.10104e-014 -6.36111e-014
rhumerus 34.0406 -18.9938 -44.7314
rradius 79.1522
rwrist -34.7732
rhand -20.2348 4.44263
rfingers 7.12502
rthumb 6.11316 -25.4492
lclavicle 3.10104e-014 -6.36111e-014
lhumerus -25.0008 -0.357687 81.0558
lradius 29.558
lwrist -19.6941
lhand -22.8143 -7.32714
lfingers 7.12502
lthumb 3.6224 22.6218
rfemur -19.4944 3.12781 9.47133
rtibia 28.9621
rfoot -2.58259 21.9879
rtoes 3.0629
lfemur -0.512726 -19.3925 -16.0237
ltibia 23.5243
lfoot -5.26583 -23.7647
ltoes 8.40782
166
root -19.9653 19.2845 -0.488 1232.93 262.492 -150.747
lowerback -6.27925 3.97845 -3.00361
upperback 6.31679 6.0267 -5.89187
thorax 10.667 2.87426 -3.75297
lowerneck -1.81539 -8.75102 5.55179
upperneck 11.2852 -13.1184 6.93836
head 4.20243 -6.06223 0.810341
rclavicle -1.27222e-014 -1.74931e-014
rhumerus 32.8576 -18.9376 -44.4162
rradius 80.7691
rwrist -35.1994
rhand -19.4874 4.65741
rfingers 7.12502
rthumb 6.83462 -25.2123
lclavicle -1.27222e-014 -1.74931e-014
lhumerus -24.9076 -0.887321 81.1738
lradius 29.9794
lwrist -18.9087
lhand -23.2492 -7.30811
lfingers 7.12502
lthumb 3.20244 22.6476
rfemur -19.781 3.52418 9.38733
rtibia 28.9121
rfoot -2.12337 22.3161
rtoes 3.0277
lfemur -0.319489 -19.9067 -16.0536
ltibia 23.1066
lfoot -4.41469 -24.3611
ltoes 10.353
167
root -19.9034 19.2745 -0.442241 1229.6 263.285 -147.506
lowerback -6.06759 4.01562 -3.03829
upperback 6.33378 6.06377 -5.95411
thorax 10.5654 2.89119 -3.80847
lowerneck -1.57617 -8.71046 5.65872
upperneck 11.0974 -13.0336 6.96566
head 4.08182 -6.03302 0.822516
rclavicle 3.45885e-014 -1.90833e-014
rhumerus 31.4949 -18.7317 -43.9175
rradius 82.4462
rwrist -35.6688
rhand -18.0945 5.25098
rfingers 7.12502
rthumb 8.17912 -24.5707
lclavicle 3.45885e-014 -1.90833e-014
lhumerus -24.7968 -1.4138 81.2261
lradius 30.3625
lwrist -18.2528
lhand -23.5554 -7.37298
lfingers 7.12502
lthumb 2.90669 22.587
rfemur -20.0874 3.91761 9.30579
rtibia 28.8998
rfoot -1.62546 22.6944
rtoes 3.1933
lfemur -0.0599235 -20.3769 -16.1036
ltibia 22.636
lfoot -3.44799 -24.9126
ltoes 12.7967
168
root -19.8402 19.263 -0.394755 1225.22 264.09 -143.183
lowerback -5.89758 4.04734 -3.09472
upperback 6.34777 6.09702 -5.99421
thorax 10.48 2.90339 -3.8261
lowerneck -1.3395 -8.66516 5.71033
upperneck 10.9141 -12.9395 6.99222
head 3.96769 -6.00073 0.842941
rclavicle -5.76476e-014 4.77083e-014
rhumerus 29.9798 -18.3065 -43.1878
rradius 84.1994
rwrist -36.1882
rhand -16.7964 5.80615
rfingers 7.12502
rthumb 9.43176 -23.9628
lclavicle -5.76476e-014 4.77083e-014
lhumerus -24.7055 -1.79165 81.2884
lradius 30.7092
lwrist -17.6706
lhand -23.7161 -7.52985
lfingers 7.12502
lthumb 2.75151 22.4321
rfemur -20.467 4.32067 9.22068
rtibia 28.9189
rfoot -1.11284 23.1023
rtoes 3.32673
lfemur 0.209007 -20.8849 -16.1725
ltibia 22.1149
lfoot -2.54327 -25.3604
ltoes 15.1959
169
root -19.7749 19.2481 -0.345423 1218.7 264.907 -136.73
lowerback -5.71949 4.10303 -3.16802
upperback 6.36863 6.16288 -6.03067
thorax 10.3971 2.92967 -3.82623
lowerneck -1.12041 -8.61808 5.73028
upperneck 10.7402 -12.8437 7.0199
head 3.86309 -5.96761 0.867301
rclavicle -1.98785e-014 -5.24792e-014
rhumerus 28.3463 -17.6667 -42.3404
rradius 85.9685
rwrist -36.5076
rhand -15.7706 6.33699
rfingers 7.12502
rthumb 10.4215 -23.3847
lclavicle -1.98785e-014 -5.24792e-014
lhumerus -24.6648 -2.1996 81.3706
lradius 31.0772
lwrist -17.1647
lhand -23.8781 -7.55875
lfingers 7.12502
lthumb 2.59508 22.4052
rfemur -20.8699 4.72595 9.12195
rtibia 28.9585
rfoot -0.464141 23.5977
rtoes 3.89554
lfemur 0.535709 -21.2979 -16.2893
ltibia 21.5698
lfoot -1.77807 -25.779
ltoes 17.2467
170
root -19.7071 19.2331 -0.291631 1209.69 265.694 -127.814
lowerback -5.52642 4.17593 -3.13092
upperback 6.40672 6.24254 -6.0966
thorax 10.3418 2.97222 -3.91892
lowerneck -0.899914 -8.56775 5.78113
upperneck 10.5143 -12.745 7.09562
head 3.74221 -5.93305 0.903216
rclavicle 5.36719e-014 -6.52014e-014
rhumerus 26.6842 -16.8686 -41.5966
rradius 87.661
rwrist -36.5068
rhand -14.9173 6.9722
rfingers 7.12502
rthumb 11.2445 -22.7064
lclavicle 5.36719e-014 -6.52014e-014
lhumerus -24.6231 -2.66901 81.3841
lradius 31.4397
lwrist -16.664
lhand -23.9625 -7.60997
lfingers 7.12502
lthumb 2.51355 22.355
rfemur -21.2798 5.15476 9.06066
rtibia 29.0092
rfoot 0.148714 24.1281
rtoes 4.38399
lfemur 0.909136 -21.6405 -16.4108
ltibia 21.0055
lfoot -1.33019 -26.1449
ltoes 18.6004
171
root -19.6365 19.2181 -0.235206 1196.69 266.318 -114.863
lowerback -5.352 4.2269 -3.16239
upperback 6.43837 6.29776 -6.12719
thorax 10.2767 2.99611 -3.93787
lowerneck -0.729944 -8.51709 5.74925
upperneck 10.3226 -12.6476 7.15355
head 3.64753 -5.89904 0.942641
rclavicle -5.4467e-014 0
rhumerus 25.0691 -15.7912 -40.7663
rradius 89.2454
rwrist -36.1971
rhand -14.2464 7.57733
rfingers 7.12502
rthumb 11.8915 -22.065
lclavicle -5.4467e-014 0
lhumerus -24.6469 -3.14365 81.4628
lradius 31.8184
lwrist -16.1453
lhand -24.059 -7.55443
lfingers 7.12502
lthumb 2.42039 22.4116
rfemur -21.7544 5.58215 8.96353
rtibia 29.0608
rfoot 0.897881 24.6532
rtoes 5.31503
lfemur 1.23378 -21.866 -16.5543
ltibia 20.4402
lfoot -1.06148 -26.499
ltoes 19.5404
172
root -19.5657 19.2021 -0.180521 1179.83 266.688 -98.0708
lowerback -5.18594 4.27095 -3.20693
upperback 6.48919 6.34616 -6.1627
thorax 10.237 3.01524 -3.9557
lowerneck -0.598027 -8.47254 5.77246
upperneck 10.1561 -12.5636 7.18245
head 3.56337 -5.86864 0.96102
rclavicle -5.68524e-014 5.725e-014
rhumerus 23.373 -14.5133 -39.9346
rradius 90.9161
rwrist -35.6457
rhand -13.5875 7.99603
rfingers 7.12502
rthumb 12.5268 -21.6085
lclavicle -5.68524e-014 5.725e-014
lhumerus -24.6311 -3.56507 81.5145
lradius 32.1354
lwrist -15.7541
lhand -24.1139 -7.48222
lfingers 7.12502
lthumb 2.36734 22.4844
rfemur -22.215 6.05333 8.8683
rtibia 29.115
rfoot 1.68156 25.0825
rtoes 6.63733
lfemur 1.5873 -21.9354 -16.7105
ltibia 19.8566
lfoot -1.16928 -26.8805
ltoes 19.6916
173
root -19.4933 19.1845 -0.127037 1161.49 266.753 -79.801
lowerback -5.00995 4.28694 -3.27548
upperback 6.54805 6.35696 -6.18256
thorax 10.1931 3.01348 -3.94936
lowerneck -0.479107 -8.43402 5.85391
upperneck 9.94365 -12.4832 7.19297
head 3.4603 -5.84053 0.964458
rclavicle -7.95139e-016 -7.31528e-014
rhumerus 21.6784 -12.9818 -39.0696
rradius 92.5337
rwrist -35.1536
rhand -12.9848 8.46013
rfingers 7.12502
rthumb 13.1078 -21.1079
lclavicle -7.95139e-016 -7.31528e-014
lhumerus -24.6048 -4.02309 81.5579
lradius 32.3928
lwrist -15.2905
lhand -24.2052 -7.38857
lfingers 7.12502
lthumb 2.27921 22.579
rfemur -22.6721 6.55033 8.79865
rtibia 29.1533
rfoot 2.5177 25.3868
rtoes 8.11198
lfemur 1.92394 -21.8596 -16.8356
ltibia 19.2802
lfoot -1.46868 -27.2658
ltoes 19.2957
174
root -19.4207 19.1666 -0.0743696 1144.38 266.472 -62.7323
lowerback -4.88726 4.29373 -3.39682
upperback 6.61809 6.36381 -6.1901
thorax 10.186 3.00439 -3.89769
lowerneck -0.421665 -8.40232 5.87778
upperneck 9.79025 -12.4263 7.2361
head 3.39676 -5.82041 0.982142
rclavicle 2.94201e-014 -6.52014e-014
rhumerus 19.9641 -11.1754 -38.1626
rradius 94.165
rwrist -34.7216
rhand -12.5467 8.84253
rfingers 7.12502
rthumb 13.5301 -20.6979
lclavicle 2.94201e-014 -6.52014e-014
lhumerus -24.5672 -4.38461 81.6085
lradius 32.6056
lwrist -15.0221
lhand -24.273 -7.25134
lfingers 7.12502
lthumb 2.21373 22.7169
rfemur -23.1536 7.10145 8.69888
rtibia 29.173
rfoot 3.18607 25.6008
rtoes 8.75613
lfemur 2.22395 -21.6312 -16.9768
ltibia 18.713
lfoot -1.92269 -27.6001
ltoes 18.7539
